<?xml version="1.0" encoding="utf-8"?>
<!-- Generator: Adobe Illustrator 16.0.0, SVG Export Plug-In . SVG Version: 6.00 Build 0)  -->
<!DOCTYPE svg PUBLIC "-//W3C//DTD SVG 1.1//EN" "http://www.w3.org/Graphics/SVG/1.1/DTD/svg11.dtd">
<svg version="1.1" id="Layer_1" xmlns="http://www.w3.org/2000/svg" xmlns:xlink="http://www.w3.org/1999/xlink" x="0px" y="0px"
	 width="74.296px" height="70.404px" viewBox="0 0 74.296 70.404" enable-background="new 0 0 74.296 70.404" xml:space="preserve">
<g id="Film_01">
</g>
<g id="New_Symbol_8">
</g>
<path fill="#0A0909" d="M70.894,67.272c-0.027,0.002-0.05,0.016-0.078,0.016h-4.752c-0.688,0-1.246-0.558-1.246-1.246v-3.504
	c0-0.688,0.559-1.246,1.246-1.246h2.94h1.812h3.479v-5.604V15.063V8.812h-3.213c-0.088,0.02-0.172,0.054-0.266,0.054h-4.752
	c-0.688,0-1.246-0.558-1.246-1.247V4.115c0-0.688,0.559-1.246,1.246-1.246h1.899h2.853h3.479V0H0v2.869h4.463
	c0.688,0,1.246,0.558,1.246,1.246v3.504c0,0.689-0.558,1.247-1.246,1.247H0v6.197v40.626v5.604h4.463
	c0.688,0,1.246,0.558,1.246,1.246v3.504c0,0.688-0.558,1.246-1.246,1.246H0v3.116h74.296v-3.132H70.894z M53.76,4.115
	c0-0.688,0.559-1.246,1.246-1.246h4.752c0.688,0,1.246,0.558,1.246,1.246v3.504c0,0.689-0.558,1.247-1.246,1.247h-4.752
	c-0.688,0-1.246-0.558-1.246-1.247V4.115z M42.701,4.115c0-0.688,0.558-1.246,1.245-1.246h4.752c0.688,0,1.246,0.558,1.246,1.246
	v3.504c0,0.689-0.558,1.247-1.246,1.247h-4.752c-0.688,0-1.245-0.558-1.245-1.247V4.115z M31.641,4.115
	c0-0.688,0.56-1.246,1.247-1.246h4.752c0.688,0,1.245,0.558,1.245,1.246v3.504c0,0.689-0.558,1.247-1.245,1.247h-4.752
	c-0.688,0-1.247-0.558-1.247-1.247V4.115z M20.582,4.115c0-0.688,0.559-1.246,1.246-1.246h4.753c0.688,0,1.245,0.558,1.245,1.246
	v3.504c0,0.689-0.557,1.247-1.245,1.247h-4.753c-0.688,0-1.246-0.558-1.246-1.247V4.115z M9.523,4.115
	c0-0.688,0.559-1.246,1.246-1.246h4.752c0.688,0,1.246,0.558,1.246,1.246v3.504c0,0.689-0.558,1.247-1.246,1.247H10.77
	c-0.688,0-1.246-0.558-1.246-1.247V4.115z M3.752,55.688V15.063c0-1.9,1.541-3.443,3.443-3.443h59.907
	c1.901,0,3.442,1.542,3.442,3.443v40.626c0,1.902-1.541,3.444-3.442,3.444H7.195C5.293,59.133,3.752,57.591,3.752,55.688z
	 M16.768,66.042c0,0.688-0.558,1.246-1.246,1.246H10.77c-0.688,0-1.246-0.558-1.246-1.246v-3.504c0-0.688,0.559-1.246,1.246-1.246
	h4.752c0.688,0,1.246,0.558,1.246,1.246V66.042z M27.826,66.042c0,0.688-0.557,1.246-1.245,1.246h-4.753
	c-0.688,0-1.246-0.558-1.246-1.246v-3.504c0-0.688,0.559-1.246,1.246-1.246h4.753c0.688,0,1.245,0.558,1.245,1.246V66.042z
	 M38.885,66.042c0,0.688-0.558,1.246-1.245,1.246h-4.752c-0.688,0-1.247-0.558-1.247-1.246v-3.504c0-0.688,0.56-1.246,1.247-1.246
	h4.752c0.688,0,1.245,0.558,1.245,1.246V66.042z M49.944,66.042c0,0.688-0.558,1.246-1.246,1.246h-4.752
	c-0.688,0-1.245-0.558-1.245-1.246v-3.504c0-0.688,0.558-1.246,1.245-1.246h4.752c0.688,0,1.246,0.558,1.246,1.246V66.042z
	 M61.004,66.042c0,0.688-0.558,1.246-1.246,1.246h-4.752c-0.688,0-1.246-0.558-1.246-1.246v-3.504c0-0.688,0.559-1.246,1.246-1.246
	h4.752c0.688,0,1.246,0.558,1.246,1.246V66.042z"/>
</svg>
